<svg width="100" height="100" viewBox="0 0 100 100" fill="none" xmlns="http://www.w3.org/2000/svg">
<path fill-rule="evenodd" clip-rule="evenodd" d="M40.3412 16.0252C40.3412 16.0252 35.5721 16.9547 32.8605 13.7458C32.8605 13.7458 32.9541 19.2345 35.2918 21.6834C37.629 24.1323 42.0241 26.3277 37.4423 29.7901C32.8605 33.2522 15.3755 39.3326 9.01712 64.1591C2.65932 88.986 27.7189 95.7423 39.5001 88.9864C39.5001 88.9864 61.9418 99.9643 77.0895 85.6089C77.0895 85.6089 90.1798 85.2716 92.7978 70.409C95.4159 55.5469 71.8529 40.6843 65.6817 32.7467C59.5105 24.809 59.1365 23.1201 61.1934 15.0134C63.2508 6.90665 39.8746 4.1196 40.3412 16.0252Z" fill="black"/>
<path fill-rule="evenodd" clip-rule="evenodd" d="M58.5763 14.5066C58.5763 14.5066 49.1997 9.10917 44.2701 17.6313C44.2701 17.6313 48.852 20.9243 48.852 24.3868C48.852 27.8488 49.5081 30.7196 44.4587 34.7729C39.4093 38.8259 30.994 47.6084 29.685 57.6573C28.376 67.7061 32.7715 87.7188 62.6934 85.8608C62.6934 85.8608 49.0424 84.7631 44.367 76.5719C44.367 76.5719 57.6445 85.5235 69.8002 80.1189C81.9559 74.7143 83.5466 59.7672 74.3829 48.7893C65.2197 37.8115 56.9907 35.9539 55.8693 25.8205C54.747 15.6871 58.5763 14.5066 58.5763 14.5066Z" fill="#F2ECBE"/>
<path fill-rule="evenodd" clip-rule="evenodd" d="M81.4905 54.2776C81.4905 54.2776 89.7191 69.1397 80.2751 80.2017C99.0943 71.6051 85.1705 53.4957 81.4905 54.2776Z" fill="#F2ECBE"/>
<path fill-rule="evenodd" clip-rule="evenodd" d="M83.9541 60.8712C85.2908 66.198 85.7148 73.8301 80.2751 80.2017C94.9206 73.5118 89.7359 61.0618 84.9814 56.2362C85.1873 56.4818 90.1225 62.4917 86.8263 69.8519C86.8263 69.8519 86.8801 65.952 83.9546 60.8724L83.9541 60.8712Z" fill="#C08261"/>
<path fill-rule="evenodd" clip-rule="evenodd" d="M36.4263 86.5323C36.4263 86.5323 17.22 90.6867 13.7979 74.0341C7.67493 44.2375 41.9704 33.5496 43.6262 26.3229C43.6262 26.3229 44.8421 31.7275 39.6055 35.8654C34.3694 40.0033 26.0481 48.9536 26.6088 60.776C27.17 72.5979 33.2476 79.2692 36.4263 86.5323Z" fill="#F2ECBE"/>
<path fill-rule="evenodd" clip-rule="evenodd" d="M30.8639 83.2161C28.1523 84.1028 26.0017 82.9836 26.5395 81.5271C27.0772 80.0706 26.423 78.4235 26.423 78.4235C24.9272 81.7169 18.7555 81.2947 15.1088 71.2458C11.7943 62.112 16.3626 53.463 17.2228 51.9634C13.7599 57.8833 11.9623 65.0998 13.7979 74.0341C17.22 90.6867 36.4262 86.5323 36.4262 86.5323C34.8097 82.8391 32.4439 79.2993 30.4352 75.1572C30.4736 77.5486 33.576 82.3293 30.8639 83.2161Z" fill="#C08261"/>
<path fill-rule="evenodd" clip-rule="evenodd" d="M74.718 56.4252C75.092 64.9541 68.8272 70.1056 62.7496 65.0387C62.7496 65.0387 63.497 68.4166 68.0788 70.8651C72.6607 73.314 70.3234 79.9849 61.7209 78.9722C53.1179 77.9587 45.6377 75.9324 41.9909 70.3587C41.9909 70.3587 41.4293 75.9328 42.926 79.7322C42.926 79.7322 28.3998 72.9476 30.4736 54.0042C30.1156 55.1986 29.8465 56.418 29.685 57.6572C28.376 67.7061 32.7715 87.7188 62.6934 85.8608C62.6934 85.8608 49.0424 84.7631 44.367 76.5719C44.367 76.5719 57.6445 85.5235 69.8002 80.1189C81.9559 74.7143 83.5466 59.7672 74.3829 48.7893C70.0393 43.5855 65.9058 40.4311 62.6396 37.4729C66.3528 41.1476 74.4302 49.865 74.718 56.4252Z" fill="#C08261"/>
<path fill-rule="evenodd" clip-rule="evenodd" d="M22.9386 72.5122C24.8622 72.5122 26.4211 73.9201 26.4211 75.6573C26.4211 77.3948 24.8622 78.8027 22.9386 78.8027C21.0146 78.8027 19.4557 77.3948 19.4557 75.6573C19.4557 73.9201 21.0146 72.5122 22.9386 72.5122Z" fill="#C08261"/>
<path fill-rule="evenodd" clip-rule="evenodd" d="M67.8678 57.6073C70.2561 57.6073 72.1922 59.3558 72.1922 61.5127C72.1922 63.67 70.2561 65.4185 67.8678 65.4185C65.4791 65.4185 63.5429 63.67 63.5429 61.5127C63.5429 59.3558 65.4791 57.6073 67.8678 57.6073Z" fill="#C08261"/>
</svg>
