<svg width="199" height="67" viewBox="0 0 199 67" fill="none" xmlns="http://www.w3.org/2000/svg">
<path d="M198.525 48.6533C198.525 58.2866 190.643 66.1693 181.007 66.1693H17.5187C7.892 66.1693 0 58.2866 0 48.6533V17.5146C0 7.88265 7.892 -2.28882e-05 17.5187 -2.28882e-05H181.007C190.643 -2.28882e-05 198.525 7.88265 198.525 17.5146V48.6533Z" fill="#5A5758"/>
<path d="M56.0763 22.9714H51.0472L50.1207 25.5356H48.5326L52.7015 14.0712H54.4385L58.5908 25.5356H57.0027L56.0763 22.9714ZM55.6461 21.7472L53.5617 15.9241L51.4773 21.7472H55.6461ZM63.7825 24.146L66.5948 16.47H68.1995L64.6427 25.5356H62.8892L59.3324 16.47H60.9536L63.7825 24.146ZM69.1184 20.9697C69.1184 20.0433 69.3059 19.2327 69.6809 18.5379C70.0558 17.832 70.5687 17.2861 71.2194 16.9001C71.8811 16.5141 72.6145 16.3211 73.4196 16.3211C74.2137 16.3211 74.903 16.492 75.4875 16.8339C76.072 17.1758 76.5076 17.6059 76.7944 18.1243V16.47H78.3163V25.5356H76.7944V23.8482C76.4966 24.3776 76.0499 24.8187 75.4544 25.1716C74.8699 25.5135 74.1861 25.6845 73.403 25.6845C72.598 25.6845 71.8701 25.486 71.2194 25.0889C70.5687 24.6919 70.0558 24.1349 69.6809 23.4181C69.3059 22.7012 69.1184 21.8851 69.1184 20.9697ZM76.7944 20.9862C76.7944 20.3025 76.6565 19.7069 76.3808 19.1996C76.1051 18.6923 75.7301 18.3063 75.2559 18.0416C74.7927 17.7659 74.2798 17.628 73.7174 17.628C73.1549 17.628 72.6421 17.7603 72.1789 18.025C71.7157 18.2897 71.3462 18.6757 71.0705 19.183C70.7948 19.6904 70.6569 20.2859 70.6569 20.9697C70.6569 21.6645 70.7948 22.2711 71.0705 22.7894C71.3462 23.2968 71.7157 23.6883 72.1789 23.964C72.6421 24.2287 73.1549 24.361 73.7174 24.361C74.2798 24.361 74.7927 24.2287 75.2559 23.964C75.7301 23.6883 76.1051 23.2968 76.3808 22.7894C76.6565 22.2711 76.7944 21.67 76.7944 20.9862ZM81.6379 14.9977C81.3511 14.9977 81.1085 14.8984 80.91 14.6999C80.7115 14.5014 80.6122 14.2587 80.6122 13.972C80.6122 13.6852 80.7115 13.4426 80.91 13.2441C81.1085 13.0456 81.3511 12.9463 81.6379 12.9463C81.9136 12.9463 82.1452 13.0456 82.3327 13.2441C82.5312 13.4426 82.6305 13.6852 82.6305 13.972C82.6305 14.2587 82.5312 14.5014 82.3327 14.6999C82.1452 14.8984 81.9136 14.9977 81.6379 14.9977ZM82.3658 16.47V25.5356H80.8604V16.47H82.3658ZM86.4369 13.2937V25.5356H84.9315V13.2937H86.4369ZM88.4402 20.9697C88.4402 20.0433 88.6277 19.2327 89.0026 18.5379C89.3776 17.832 89.8905 17.2861 90.5411 16.9001C91.2029 16.5141 91.9363 16.3211 92.7414 16.3211C93.5354 16.3211 94.2247 16.492 94.8093 16.8339C95.3938 17.1758 95.8294 17.6059 96.1162 18.1243V16.47H97.6381V25.5356H96.1162V23.8482C95.8184 24.3776 95.3717 24.8187 94.7762 25.1716C94.1916 25.5135 93.5079 25.6845 92.7248 25.6845C91.9197 25.6845 91.1918 25.486 90.5411 25.0889C89.8905 24.6919 89.3776 24.1349 89.0026 23.4181C88.6277 22.7012 88.4402 21.8851 88.4402 20.9697ZM96.1162 20.9862C96.1162 20.3025 95.9783 19.7069 95.7026 19.1996C95.4269 18.6923 95.0519 18.3063 94.5777 18.0416C94.1144 17.7659 93.6016 17.628 93.0391 17.628C92.4767 17.628 91.9638 17.7603 91.5006 18.025C91.0374 18.2897 90.668 18.6757 90.3923 19.183C90.1165 19.6904 89.9787 20.2859 89.9787 20.9697C89.9787 21.6645 90.1165 22.2711 90.3923 22.7894C90.668 23.2968 91.0374 23.6883 91.5006 23.964C91.9638 24.2287 92.4767 24.361 93.0391 24.361C93.6016 24.361 94.1144 24.2287 94.5777 23.964C95.0519 23.6883 95.4269 23.2968 95.7026 22.7894C95.9783 22.2711 96.1162 21.67 96.1162 20.9862ZM101.688 18.1574C101.996 17.617 102.449 17.1758 103.044 16.8339C103.64 16.492 104.318 16.3211 105.079 16.3211C105.895 16.3211 106.628 16.5141 107.279 16.9001C107.93 17.2861 108.443 17.832 108.818 18.5379C109.193 19.2327 109.38 20.0433 109.38 20.9697C109.38 21.8851 109.193 22.7012 108.818 23.4181C108.443 24.1349 107.924 24.6919 107.263 25.0889C106.612 25.486 105.884 25.6845 105.079 25.6845C104.296 25.6845 103.607 25.5135 103.011 25.1716C102.426 24.8297 101.985 24.3941 101.688 23.8647V25.5356H100.182V13.2937H101.688V18.1574ZM107.842 20.9697C107.842 20.2859 107.704 19.6904 107.428 19.183C107.152 18.6757 106.777 18.2897 106.303 18.025C105.84 17.7603 105.327 17.628 104.765 17.628C104.213 17.628 103.7 17.7659 103.226 18.0416C102.763 18.3063 102.388 18.6978 102.101 19.2161C101.825 19.7235 101.688 20.3135 101.688 20.9862C101.688 21.67 101.825 22.2711 102.101 22.7894C102.388 23.2968 102.763 23.6883 103.226 23.964C103.7 24.2287 104.213 24.361 104.765 24.361C105.327 24.361 105.84 24.2287 106.303 23.964C106.777 23.6883 107.152 23.2968 107.428 22.7894C107.704 22.2711 107.842 21.6645 107.842 20.9697ZM112.867 13.2937V25.5356H111.362V13.2937H112.867ZM123.704 20.6554C123.704 20.9421 123.688 21.2454 123.655 21.5652H116.409C116.464 22.4586 116.767 23.1589 117.319 23.6662C117.881 24.1625 118.559 24.4107 119.353 24.4107C120.004 24.4107 120.545 24.2618 120.975 23.964C121.416 23.6552 121.725 23.2471 121.901 22.7398H123.522C123.28 23.6111 122.794 24.3224 122.067 24.8739C121.339 25.4143 120.434 25.6845 119.353 25.6845C118.493 25.6845 117.721 25.4915 117.037 25.1055C116.365 24.7195 115.835 24.1735 115.449 23.4677C115.063 22.7508 114.87 21.9237 114.87 20.9862C114.87 20.0488 115.058 19.2272 115.433 18.5213C115.808 17.8155 116.332 17.2751 117.004 16.9001C117.688 16.5141 118.471 16.3211 119.353 16.3211C120.214 16.3211 120.975 16.5086 121.636 16.8836C122.298 17.2585 122.805 17.7769 123.158 18.4386C123.522 19.0893 123.704 19.8282 123.704 20.6554ZM122.149 20.3411C122.149 19.7676 122.022 19.2768 121.769 18.8687C121.515 18.4496 121.168 18.1353 120.727 17.9258C120.296 17.7052 119.817 17.5949 119.287 17.5949C118.526 17.5949 117.876 17.8375 117.335 18.3228C116.806 18.8081 116.503 19.4808 116.425 20.3411H122.149ZM134.056 25.6845C133.206 25.6845 132.434 25.4915 131.74 25.1055C131.056 24.7195 130.515 24.1735 130.118 23.4677C129.732 22.7508 129.539 21.9237 129.539 20.9862C129.539 20.0598 129.738 19.2437 130.135 18.5379C130.543 17.821 131.094 17.2751 131.789 16.9001C132.484 16.5141 133.262 16.3211 134.122 16.3211C134.982 16.3211 135.76 16.5141 136.454 16.9001C137.149 17.2751 137.695 17.8155 138.092 18.5213C138.5 19.2272 138.704 20.0488 138.704 20.9862C138.704 21.9237 138.495 22.7508 138.076 23.4677C137.668 24.1735 137.111 24.7195 136.405 25.1055C135.699 25.4915 134.916 25.6845 134.056 25.6845ZM134.056 24.361C134.596 24.361 135.103 24.2342 135.578 23.9805C136.052 23.7269 136.432 23.3464 136.719 22.8391C137.017 22.3317 137.166 21.7141 137.166 20.9862C137.166 20.2583 137.022 19.6407 136.736 19.1334C136.449 18.6261 136.074 18.2511 135.611 18.0085C135.147 17.7548 134.646 17.628 134.105 17.628C133.554 17.628 133.046 17.7548 132.583 18.0085C132.131 18.2511 131.767 18.6261 131.491 19.1334C131.216 19.6407 131.078 20.2583 131.078 20.9862C131.078 21.7252 131.21 22.3483 131.475 22.8556C131.751 23.3629 132.115 23.7434 132.567 23.9971C133.019 24.2397 133.515 24.361 134.056 24.361ZM145.101 16.3046C146.203 16.3046 147.097 16.6409 147.781 17.3137C148.464 17.9754 148.806 18.9349 148.806 20.1922V25.5356H147.317V20.4072C147.317 19.5029 147.091 18.8136 146.639 18.3393C146.187 17.8541 145.569 17.6115 144.786 17.6115C143.992 17.6115 143.358 17.8596 142.884 18.3559C142.421 18.8522 142.189 19.5746 142.189 20.523V25.5356H140.684V16.47H142.189V17.7603C142.487 17.2971 142.889 16.9387 143.397 16.685C143.915 16.4314 144.483 16.3046 145.101 16.3046ZM157.512 17.7107V23.0541C157.512 23.4953 157.606 23.8096 157.793 23.9971C157.981 24.1735 158.306 24.2618 158.769 24.2618H159.878V25.5356H158.521C157.683 25.5356 157.054 25.3426 156.635 24.9566C156.216 24.5706 156.007 23.9364 156.007 23.0541V17.7107H154.832V16.47H156.007V14.187H157.512V16.47H159.878V17.7107H157.512ZM166.201 16.3046C166.885 16.3046 167.503 16.4534 168.054 16.7512C168.606 17.038 169.036 17.4736 169.345 18.0581C169.664 18.6426 169.824 19.354 169.824 20.1922V25.5356H168.335V20.4072C168.335 19.5029 168.109 18.8136 167.657 18.3393C167.205 17.8541 166.587 17.6115 165.804 17.6115C165.01 17.6115 164.376 17.8596 163.902 18.3559C163.439 18.8522 163.207 19.5746 163.207 20.523V25.5356H161.702V13.2937H163.207V17.7603C163.505 17.2971 163.913 16.9387 164.431 16.685C164.961 16.4314 165.551 16.3046 166.201 16.3046ZM180.555 20.6554C180.555 20.9421 180.538 21.2454 180.505 21.5652H173.259C173.315 22.4586 173.618 23.1589 174.169 23.6662C174.732 24.1625 175.41 24.4107 176.204 24.4107C176.855 24.4107 177.395 24.2618 177.825 23.964C178.266 23.6552 178.575 23.2471 178.752 22.7398H180.373C180.13 23.6111 179.645 24.3224 178.917 24.8739C178.189 25.4143 177.285 25.6845 176.204 25.6845C175.344 25.6845 174.572 25.4915 173.888 25.1055C173.215 24.7195 172.686 24.1735 172.3 23.4677C171.914 22.7508 171.721 21.9237 171.721 20.9862C171.721 20.0488 171.908 19.2272 172.283 18.5213C172.658 17.8155 173.182 17.2751 173.855 16.9001C174.539 16.5141 175.322 16.3211 176.204 16.3211C177.064 16.3211 177.825 16.5086 178.487 16.8836C179.149 17.2585 179.656 17.7769 180.009 18.4386C180.373 19.0893 180.555 19.8282 180.555 20.6554ZM179 20.3411C179 19.7676 178.873 19.2768 178.619 18.8687C178.366 18.4496 178.018 18.1353 177.577 17.9258C177.147 17.7052 176.667 17.5949 176.138 17.5949C175.377 17.5949 174.726 17.8375 174.186 18.3228C173.656 18.8081 173.353 19.4808 173.276 20.3411H179Z" fill="white"/>
<path d="M63.49 47.701H55.1883L53.659 51.9338H51.0374L57.9191 33.0091H60.7865L67.6409 51.9338H65.0193L63.49 47.701ZM62.78 45.6802L59.3392 36.0677L55.8983 45.6802H62.78ZM73.1252 39.727C73.6168 38.8713 74.345 38.1613 75.3099 37.5969C76.293 37.0143 77.4308 36.7231 78.7234 36.7231C80.0524 36.7231 81.254 37.0417 82.3281 37.6789C83.4205 38.316 84.2761 39.2172 84.8951 40.3824C85.5141 41.5293 85.8236 42.8674 85.8236 44.3967C85.8236 45.9078 85.5141 47.255 84.8951 48.4384C84.2761 49.6217 83.4205 50.5411 82.3281 51.1965C81.254 51.8519 80.0524 52.1796 78.7234 52.1796C77.449 52.1796 76.3203 51.8974 75.3372 51.3331C74.3723 50.7505 73.635 50.0314 73.1252 49.1757V59.034H70.6401V36.9688H73.1252V39.727ZM83.2839 44.3967C83.2839 43.268 83.0564 42.2849 82.6012 41.4474C82.1461 40.61 81.5271 39.9728 80.7443 39.5358C79.9796 39.0989 79.1331 38.8804 78.2046 38.8804C77.2943 38.8804 76.4477 39.108 75.6649 39.5631C74.9003 40.0001 74.2813 40.6464 73.8079 41.502C73.3528 42.3395 73.1252 43.3135 73.1252 44.424C73.1252 45.5528 73.3528 46.545 73.8079 47.4006C74.2813 48.2381 74.9003 48.8844 75.6649 49.3395C76.4477 49.7765 77.2943 49.9949 78.2046 49.9949C79.1331 49.9949 79.9796 49.7765 80.7443 49.3395C81.5271 48.8844 82.1461 48.2381 82.6012 47.4006C83.0564 46.545 83.2839 45.5437 83.2839 44.3967ZM91.5797 39.727C92.0713 38.8713 92.7995 38.1613 93.7644 37.5969C94.7475 37.0143 95.8853 36.7231 97.1779 36.7231C98.5069 36.7231 99.7085 37.0417 100.783 37.6789C101.875 38.316 102.731 39.2172 103.35 40.3824C103.969 41.5293 104.278 42.8674 104.278 44.3967C104.278 45.9078 103.969 47.255 103.35 48.4384C102.731 49.6217 101.875 50.5411 100.783 51.1965C99.7085 51.8519 98.5069 52.1796 97.1779 52.1796C95.9035 52.1796 94.7748 51.8974 93.7917 51.3331C92.8268 50.7505 92.0895 50.0314 91.5797 49.1757V59.034H89.0946V36.9688H91.5797V39.727ZM101.738 44.3967C101.738 43.268 101.511 42.2849 101.056 41.4474C100.601 40.61 99.9816 39.9728 99.1988 39.5358C98.4341 39.0989 97.5876 38.8804 96.6591 38.8804C95.7488 38.8804 94.9022 39.108 94.1194 39.5631C93.3548 40.0001 92.7358 40.6464 92.2624 41.502C91.8073 42.3395 91.5797 43.3135 91.5797 44.424C91.5797 45.5528 91.8073 46.545 92.2624 47.4006C92.7358 48.2381 93.3548 48.8844 94.1194 49.3395C94.9022 49.7765 95.7488 49.9949 96.6591 49.9949C97.5876 49.9949 98.4341 49.7765 99.1988 49.3395C99.9816 48.8844 100.601 48.2381 101.056 47.4006C101.511 46.545 101.738 45.5437 101.738 44.3967ZM120.865 52.125C119.609 52.125 118.48 51.9065 117.479 51.4696C116.495 51.0145 115.722 50.3955 115.157 49.6126C114.593 48.8116 114.302 47.8922 114.283 46.8545H116.932C117.023 47.7465 117.388 48.5021 118.025 49.1211C118.68 49.7219 119.627 50.0222 120.865 50.0222C122.048 50.0222 122.977 49.731 123.65 49.1484C124.342 48.5476 124.688 47.783 124.688 46.8545C124.688 46.1263 124.488 45.5346 124.087 45.0794C123.687 44.6243 123.186 44.2784 122.585 44.0417C121.984 43.805 121.174 43.5502 120.155 43.2771C118.899 42.9494 117.888 42.6217 117.124 42.294C116.377 41.9663 115.731 41.4565 115.185 40.7647C114.657 40.0547 114.393 39.108 114.393 37.9246C114.393 36.8869 114.657 35.9675 115.185 35.1665C115.713 34.3654 116.45 33.7464 117.397 33.3095C118.362 32.8726 119.463 32.6541 120.701 32.6541C122.485 32.6541 123.942 33.1001 125.07 33.9922C126.217 34.8843 126.864 36.0677 127.009 37.5423H124.278C124.187 36.8141 123.805 36.1769 123.131 35.6307C122.458 35.0663 121.566 34.7842 120.455 34.7842C119.417 34.7842 118.571 35.0572 117.915 35.6034C117.26 36.1314 116.932 36.8778 116.932 37.8427C116.932 38.5345 117.124 39.0989 117.506 39.5358C117.906 39.9728 118.389 40.3096 118.953 40.5462C119.536 40.7647 120.346 41.0196 121.384 41.3109C122.64 41.6568 123.65 42.0027 124.415 42.3486C125.179 42.6763 125.835 43.1952 126.381 43.9052C126.927 44.597 127.2 45.5437 127.2 46.7452C127.2 47.6737 126.955 48.5476 126.463 49.3668C125.971 50.1861 125.243 50.8506 124.278 51.3604C123.313 51.8701 122.176 52.125 120.865 52.125ZM133.889 39.017V47.8376C133.889 48.5658 134.043 49.0847 134.353 49.3942C134.662 49.6854 135.199 49.8311 135.964 49.8311H137.794V51.9338H135.554C134.171 51.9338 133.133 51.6152 132.441 50.978C131.749 50.3408 131.403 49.294 131.403 47.8376V39.017H129.465V36.9688H131.403V33.2003H133.889V36.9688H137.794V39.017H133.889ZM147.331 52.1796C145.929 52.1796 144.655 51.861 143.508 51.2238C142.379 50.5866 141.487 49.6854 140.832 48.5203C140.195 47.3369 139.876 45.9715 139.876 44.424C139.876 42.8948 140.204 41.5475 140.859 40.3824C141.533 39.199 142.443 38.2978 143.59 37.6789C144.737 37.0417 146.021 36.7231 147.441 36.7231C148.861 36.7231 150.144 37.0417 151.291 37.6789C152.438 38.2978 153.339 39.1899 153.995 40.3551C154.668 41.5202 155.005 42.8766 155.005 44.424C155.005 45.9715 154.659 47.3369 153.967 48.5203C153.294 49.6854 152.374 50.5866 151.209 51.2238C150.044 51.861 148.751 52.1796 147.331 52.1796ZM147.331 49.9949C148.223 49.9949 149.061 49.7856 149.844 49.3668C150.627 48.9481 151.255 48.32 151.728 47.4826C152.22 46.6451 152.465 45.6256 152.465 44.424C152.465 43.2225 152.229 42.2029 151.755 41.3655C151.282 40.528 150.663 39.909 149.898 39.5085C149.134 39.0898 148.305 38.8804 147.413 38.8804C146.503 38.8804 145.665 39.0898 144.901 39.5085C144.154 39.909 143.554 40.528 143.099 41.3655C142.643 42.2029 142.416 43.2225 142.416 44.424C142.416 45.6438 142.634 46.6724 143.071 47.5099C143.526 48.3473 144.127 48.9754 144.874 49.3942C145.62 49.7947 146.439 49.9949 147.331 49.9949ZM160.757 39.3993C161.194 38.5436 161.813 37.8791 162.614 37.4058C163.434 36.9324 164.426 36.6958 165.591 36.6958V39.2627H164.936C162.15 39.2627 160.757 40.7738 160.757 43.7959V51.9338H158.272V36.9688H160.757V39.3993ZM182.114 43.8779C182.114 44.3512 182.087 44.8519 182.032 45.3798H170.071C170.162 46.8545 170.663 48.0105 171.573 48.848C172.501 49.6672 173.621 50.0769 174.932 50.0769C176.006 50.0769 176.898 49.8311 177.608 49.3395C178.336 48.8298 178.846 48.1562 179.137 47.3187H181.813C181.413 48.757 180.612 49.9312 179.41 50.8415C178.209 51.7336 176.716 52.1796 174.932 52.1796C173.512 52.1796 172.237 51.861 171.109 51.2238C169.998 50.5866 169.124 49.6854 168.487 48.5203C167.85 47.3369 167.531 45.9715 167.531 44.424C167.531 42.8766 167.841 41.5202 168.46 40.3551C169.079 39.1899 169.943 38.2978 171.054 37.6789C172.183 37.0417 173.475 36.7231 174.932 36.7231C176.352 36.7231 177.608 37.0326 178.7 37.6515C179.793 38.2705 180.63 39.1262 181.213 40.2185C181.813 41.2927 182.114 42.5124 182.114 43.8779ZM179.547 43.359C179.547 42.4123 179.338 41.6022 178.919 40.9286C178.5 40.2367 177.927 39.7179 177.198 39.372C176.488 39.0079 175.696 38.8258 174.823 38.8258C173.566 38.8258 172.492 39.2263 171.6 40.0274C170.726 40.8284 170.226 41.939 170.098 43.359H179.547Z" fill="white"/>
<path d="M34.752 13.856H14.2306C12.5573 13.856 11.188 15.2294 11.188 16.8987V51.6453C11.188 53.316 12.5573 54.684 14.2306 54.684H34.752C36.4267 54.684 37.7946 53.316 37.7946 51.6453V16.8987C37.7946 15.2294 36.4267 13.856 34.752 13.856Z" fill="white"/>
<path d="M12.6387 18.7614V47.4041H36.344V18.7614H12.6387Z" fill="#5A5758"/>
<path d="M29.3507 15.6827H19.628C19.2413 15.6827 18.912 16.008 18.912 16.4027C18.912 16.7987 19.2413 17.1133 19.628 17.1133H29.3507C29.7413 17.1133 30.0613 16.7987 30.0613 16.4027C30.0613 16.008 29.7413 15.6827 29.3507 15.6827Z" fill="#5D339A"/>
<path d="M22.1614 50.8653C22.1614 49.5773 23.204 48.5307 24.4934 48.5307C25.7787 48.5307 26.8307 49.5773 26.8307 50.8653C26.8307 52.1507 25.7787 53.1987 24.4934 53.1987C23.204 53.1987 22.1614 52.1507 22.1614 50.8653Z" fill="#5D339A"/>
</svg>
