<svg width="199" height="67" viewBox="0 0 199 67" fill="none" xmlns="http://www.w3.org/2000/svg">
<path d="M198.525 48.6533C198.525 58.2853 190.643 66.176 181.007 66.176H17.5187C7.892 66.176 0 58.2853 0 48.6533V17.52C0 7.87998 7.892 0 17.5187 0H181.007C190.643 0 198.525 7.87998 198.525 17.52V48.6533Z" fill="#5A5758"/>
<path d="M61.8487 17.7959H59.1809L58.6895 19.1562H57.847L60.0585 13.0745H60.9799L63.1827 19.1562H62.3402L61.8487 17.7959ZM61.6206 17.1465L60.5148 14.0574L59.4091 17.1465H61.6206ZM68.9556 19.1562H68.157L64.9451 14.2856V19.1562H64.1465V13.0306H64.9451L68.157 17.8924V13.0306H68.9556V19.1562ZM72.2213 13.0394C72.8883 13.0394 73.4646 13.1652 73.9502 13.4168C74.4416 13.6625 74.8161 14.0165 75.0735 14.4786C75.3368 14.9408 75.4684 15.4849 75.4684 16.111C75.4684 16.737 75.3368 17.2811 75.0735 17.7433C74.8161 18.1996 74.4416 18.5506 73.9502 18.7964C73.4646 19.0362 72.8883 19.1562 72.2213 19.1562H70.317V13.0394H72.2213ZM72.2213 18.498C73.0112 18.498 73.6138 18.2903 74.0292 17.8749C74.4446 17.4537 74.6522 16.8657 74.6522 16.111C74.6522 15.3504 74.4416 14.7566 74.0204 14.3295C73.605 13.9024 73.0053 13.6888 72.2213 13.6888H71.1156V18.498H72.2213ZM79.7425 19.1562L78.2857 16.6551H77.3204V19.1562H76.5218V13.0394H78.4963C78.9585 13.0394 79.3476 13.1184 79.6635 13.2764C79.9853 13.4343 80.2252 13.6479 80.3831 13.917C80.5411 14.1861 80.6201 14.4933 80.6201 14.8385C80.6201 15.2597 80.4972 15.6312 80.2515 15.953C80.0116 16.2748 79.6489 16.4883 79.1633 16.5936L80.6991 19.1562H79.7425ZM77.3204 16.0144H78.4963C78.9293 16.0144 79.254 15.9091 79.4704 15.6985C79.6869 15.482 79.7951 15.1953 79.7951 14.8385C79.7951 14.4757 79.6869 14.1949 79.4704 13.996C79.2598 13.7971 78.9351 13.6976 78.4963 13.6976H77.3204V16.0144ZM84.6341 19.2176C84.0666 19.2176 83.5488 19.086 83.0808 18.8227C82.6128 18.5536 82.2412 18.182 81.9663 17.7081C81.6971 17.2284 81.5626 16.6902 81.5626 16.0934C81.5626 15.4966 81.6971 14.9613 81.9663 14.4874C82.2412 14.0077 82.6128 13.6362 83.0808 13.3729C83.5488 13.1038 84.0666 12.9692 84.6341 12.9692C85.2075 12.9692 85.7282 13.1038 86.1962 13.3729C86.6643 13.6362 87.0328 14.0048 87.302 14.4786C87.5711 14.9525 87.7057 15.4908 87.7057 16.0934C87.7057 16.696 87.5711 17.2343 87.302 17.7081C87.0328 18.182 86.6643 18.5536 86.1962 18.8227C85.7282 19.086 85.2075 19.2176 84.6341 19.2176ZM84.6341 18.5243C85.0612 18.5243 85.4444 18.4248 85.7837 18.2259C86.1289 18.027 86.3981 17.7433 86.5911 17.3747C86.79 17.0061 86.8895 16.579 86.8895 16.0934C86.8895 15.602 86.79 15.1749 86.5911 14.8121C86.3981 14.4435 86.1319 14.1598 85.7925 13.9609C85.4532 13.762 85.0671 13.6625 84.6341 13.6625C84.2012 13.6625 83.815 13.762 83.4757 13.9609C83.1364 14.1598 82.8673 14.4435 82.6683 14.8121C82.4753 15.1749 82.3787 15.602 82.3787 16.0934C82.3787 16.579 82.4753 17.0061 82.6683 17.3747C82.8673 17.7433 83.1364 18.027 83.4757 18.2259C83.8209 18.4248 84.207 18.5243 84.6341 18.5243ZM89.5585 13.0394V19.1562H88.7599V13.0394H89.5585ZM92.8239 13.0394C93.4909 13.0394 94.0672 13.1652 94.5528 13.4168C95.0442 13.6625 95.4187 14.0165 95.6761 14.4786C95.9394 14.9408 96.071 15.4849 96.071 16.111C96.071 16.737 95.9394 17.2811 95.6761 17.7433C95.4187 18.1996 95.0442 18.5506 94.5528 18.7964C94.0672 19.0362 93.4909 19.1562 92.8239 19.1562H90.9196V13.0394H92.8239ZM92.8239 18.498C93.6138 18.498 94.2164 18.2903 94.6318 17.8749C95.0471 17.4537 95.2548 16.8657 95.2548 16.111C95.2548 15.3504 95.0442 14.7566 94.623 14.3295C94.2076 13.9024 93.6079 13.6888 92.8239 13.6888H91.7182V18.498H92.8239ZM103.08 17.7959H100.412L99.9203 19.1562H99.0779L101.289 13.0745H102.211L104.414 19.1562H103.571L103.08 17.7959ZM102.851 17.1465L101.746 14.0574L100.64 17.1465H102.851ZM109.467 14.8297C109.467 15.3387 109.291 15.7628 108.94 16.1022C108.595 16.4357 108.066 16.6024 107.352 16.6024H106.176V19.1562H105.377V13.0394H107.352C108.042 13.0394 108.566 13.2062 108.923 13.5396C109.286 13.8731 109.467 14.3031 109.467 14.8297ZM107.352 15.9442C107.797 15.9442 108.124 15.8477 108.335 15.6546C108.545 15.4615 108.651 15.1866 108.651 14.8297C108.651 14.075 108.218 13.6976 107.352 13.6976H106.176V15.9442H107.352ZM114.549 14.8297C114.549 15.3387 114.373 15.7628 114.022 16.1022C113.677 16.4357 113.148 16.6024 112.434 16.6024H111.258V19.1562H110.459V13.0394H112.434C113.124 13.0394 113.648 13.2062 114.005 13.5396C114.368 13.8731 114.549 14.3031 114.549 14.8297ZM112.434 15.9442C112.879 15.9442 113.206 15.8477 113.417 15.6546C113.628 15.4615 113.733 15.1866 113.733 14.8297C113.733 14.075 113.3 13.6976 112.434 13.6976H111.258V15.9442H112.434ZM120.654 19.2176C120.087 19.2176 119.569 19.086 119.101 18.8227C118.633 18.5536 118.262 18.182 117.987 17.7081C117.717 17.2284 117.583 16.6902 117.583 16.0934C117.583 15.4966 117.717 14.9613 117.987 14.4874C118.262 14.0077 118.633 13.6362 119.101 13.3729C119.569 13.1038 120.087 12.9692 120.654 12.9692C121.228 12.9692 121.748 13.1038 122.216 13.3729C122.685 13.6362 123.053 14.0048 123.322 14.4786C123.591 14.9525 123.726 15.4908 123.726 16.0934C123.726 16.696 123.591 17.2343 123.322 17.7081C123.053 18.182 122.685 18.5536 122.216 18.8227C121.748 19.086 121.228 19.2176 120.654 19.2176ZM120.654 18.5243C121.081 18.5243 121.465 18.4248 121.804 18.2259C122.149 18.027 122.418 17.7433 122.611 17.3747C122.81 17.0061 122.91 16.579 122.91 16.0934C122.91 15.602 122.81 15.1749 122.611 14.8121C122.418 14.4435 122.152 14.1598 121.813 13.9609C121.473 13.762 121.087 13.6625 120.654 13.6625C120.221 13.6625 119.835 13.762 119.496 13.9609C119.157 14.1598 118.888 14.4435 118.689 14.8121C118.496 15.1749 118.399 15.602 118.399 16.0934C118.399 16.579 118.496 17.0061 118.689 17.3747C118.888 17.7433 119.157 18.027 119.496 18.2259C119.841 18.4248 120.227 18.5243 120.654 18.5243ZM129.589 19.1562H128.791L125.579 14.2856V19.1562H124.78V13.0306H125.579L128.791 17.8924V13.0306H129.589V19.1562Z" fill="white"/>
<path d="M67.7317 34.2857C67.295 33.3671 66.6626 32.6594 65.8344 32.1625C65.0062 31.6505 64.0424 31.3945 62.9431 31.3945C61.8439 31.3945 60.85 31.6505 59.9616 32.1625C59.0882 32.6594 58.3955 33.3822 57.8835 34.3309C57.3866 35.2645 57.1381 36.3487 57.1381 37.5835C57.1381 38.8183 57.3866 39.9025 57.8835 40.8362C58.3955 41.7698 59.0882 42.4926 59.9616 43.0046C60.85 43.5015 61.8439 43.75 62.9431 43.75C64.4791 43.75 65.744 43.2907 66.7379 42.3721C67.7317 41.4536 68.3115 40.2112 68.4771 38.6451H62.1977V36.9737H70.6681V38.5548C70.5477 39.8498 70.1411 41.0394 69.4484 42.1237C68.7557 43.1928 67.8447 44.0436 66.7153 44.6761C65.5859 45.2935 64.3285 45.6022 62.9431 45.6022C61.4825 45.6022 60.1498 45.2634 58.9451 44.5857C57.7404 43.893 56.7842 42.9368 56.0765 41.7171C55.3838 40.4973 55.0374 39.1195 55.0374 37.5835C55.0374 36.0476 55.3838 34.6697 56.0765 33.45C56.7842 32.2152 57.7404 31.259 58.9451 30.5813C60.1498 29.8886 61.4825 29.5423 62.9431 29.5423C64.6146 29.5423 66.0904 29.9564 67.3703 30.7846C68.6654 31.6128 69.6065 32.7799 70.1938 34.2857H67.7317ZM78.7844 45.6699C77.6249 45.6699 76.5708 45.4064 75.6221 44.8794C74.6885 44.3523 73.9506 43.6069 73.4085 42.6432C72.8814 41.6644 72.6179 40.535 72.6179 39.255C72.6179 37.9901 72.889 36.8758 73.4311 35.912C73.9882 34.9332 74.7412 34.1878 75.6899 33.6758C76.6385 33.1488 77.7002 32.8853 78.8747 32.8853C80.0493 32.8853 81.1109 33.1488 82.0596 33.6758C83.0083 34.1878 83.7537 34.9257 84.2958 35.8894C84.8529 36.8532 85.1315 37.975 85.1315 39.255C85.1315 40.535 84.8454 41.6644 84.2732 42.6432C83.716 43.6069 82.9556 44.3523 81.9918 44.8794C81.0281 45.4064 79.9589 45.6699 78.7844 45.6699ZM78.7844 43.8629C79.5222 43.8629 80.2149 43.6897 80.8624 43.3434C81.51 42.9971 82.0295 42.4775 82.421 41.7848C82.8276 41.0922 83.0309 40.2489 83.0309 39.255C83.0309 38.2612 82.8351 37.4179 82.4436 36.7252C82.0521 36.0325 81.5401 35.5205 80.9076 35.1892C80.2752 34.8429 79.59 34.6697 78.8521 34.6697C78.0992 34.6697 77.4065 34.8429 76.7741 35.1892C76.1567 35.5205 75.6597 36.0325 75.2833 36.7252C74.9068 37.4179 74.7186 38.2612 74.7186 39.255C74.7186 40.2639 74.8993 41.1147 75.2607 41.8074C75.6372 42.5001 76.1341 43.0196 76.7515 43.366C77.3689 43.6973 78.0465 43.8629 78.7844 43.8629ZM93.2326 45.6699C92.0731 45.6699 91.019 45.4064 90.0703 44.8794C89.1367 44.3523 88.3988 43.6069 87.8567 42.6432C87.3297 41.6644 87.0661 40.535 87.0661 39.255C87.0661 37.9901 87.3372 36.8758 87.8793 35.912C88.4365 34.9332 89.1894 34.1878 90.1381 33.6758C91.0867 33.1488 92.1484 32.8853 93.3229 32.8853C94.4975 32.8853 95.5591 33.1488 96.5078 33.6758C97.4565 34.1878 98.2019 34.9257 98.744 35.8894C99.3012 36.8532 99.5797 37.975 99.5797 39.255C99.5797 40.535 99.2936 41.6644 98.7214 42.6432C98.1642 43.6069 97.4038 44.3523 96.44 44.8794C95.4763 45.4064 94.4071 45.6699 93.2326 45.6699ZM93.2326 43.8629C93.9704 43.8629 94.6631 43.6897 95.3107 43.3434C95.9582 42.9971 96.4777 42.4775 96.8692 41.7848C97.2758 41.0922 97.4791 40.2489 97.4791 39.255C97.4791 38.2612 97.2833 37.4179 96.8918 36.7252C96.5003 36.0325 95.9883 35.5205 95.3558 35.1892C94.7234 34.8429 94.0382 34.6697 93.3003 34.6697C92.5474 34.6697 91.8547 34.8429 91.2223 35.1892C90.6049 35.5205 90.1079 36.0325 89.7315 36.7252C89.355 37.4179 89.1668 38.2612 89.1668 39.255C89.1668 40.2639 89.3475 41.1147 89.7089 41.8074C90.0854 42.5001 90.5823 43.0196 91.1997 43.366C91.8171 43.6973 92.4947 43.8629 93.2326 43.8629ZM107.387 32.8853C108.456 32.8853 109.39 33.1187 110.188 33.5855C111.001 34.0523 111.604 34.6396 111.995 35.3473V33.0886H114.073V45.7377C114.073 46.8671 113.832 47.8685 113.35 48.7419C112.868 49.6303 112.176 50.323 111.272 50.8199C110.384 51.3169 109.345 51.5653 108.155 51.5653C106.529 51.5653 105.174 51.1813 104.089 50.4134C103.005 49.6454 102.365 48.5988 102.169 47.2737H104.202C104.428 48.0266 104.895 48.6289 105.603 49.0807C106.31 49.5475 107.161 49.7809 108.155 49.7809C109.285 49.7809 110.203 49.427 110.911 48.7193C111.634 48.0115 111.995 47.0177 111.995 45.7377V43.1401C111.588 43.8629 110.986 44.4653 110.188 44.9471C109.39 45.429 108.456 45.6699 107.387 45.6699C106.288 45.6699 105.286 45.3989 104.383 44.8568C103.495 44.3147 102.794 43.5542 102.282 42.5754C101.77 41.5966 101.514 40.4823 101.514 39.2324C101.514 37.9675 101.77 36.8607 102.282 35.912C102.794 34.9483 103.495 34.2029 104.383 33.6758C105.286 33.1488 106.288 32.8853 107.387 32.8853ZM111.995 39.255C111.995 38.3214 111.807 37.5082 111.43 36.8155C111.054 36.1229 110.542 35.5958 109.894 35.2344C109.262 34.8579 108.562 34.6697 107.794 34.6697C107.026 34.6697 106.326 34.8504 105.693 35.2118C105.061 35.5732 104.556 36.1003 104.18 36.793C103.803 37.4856 103.615 38.2988 103.615 39.2324C103.615 40.1811 103.803 41.0093 104.18 41.7171C104.556 42.4098 105.061 42.9443 105.693 43.3208C106.326 43.6822 107.026 43.8629 107.794 43.8629C108.562 43.8629 109.262 43.6822 109.894 43.3208C110.542 42.9443 111.054 42.4098 111.43 41.7171C111.807 41.0093 111.995 40.1886 111.995 39.255ZM119.602 28.7517V45.4666H117.547V28.7517H119.602ZM134.399 38.8033C134.399 39.1948 134.377 39.6089 134.331 40.0456H124.438C124.513 41.2653 124.927 42.2215 125.68 42.9142C126.448 43.5919 127.374 43.9307 128.459 43.9307C129.347 43.9307 130.085 43.7274 130.672 43.3208C131.275 42.8992 131.696 42.342 131.937 41.6493H134.151C133.82 42.8389 133.157 43.8102 132.163 44.5631C131.169 45.301 129.934 45.6699 128.459 45.6699C127.284 45.6699 126.23 45.4064 125.296 44.8794C124.378 44.3523 123.655 43.6069 123.128 42.6432C122.601 41.6644 122.337 40.535 122.337 39.255C122.337 37.975 122.593 36.8532 123.105 35.8894C123.617 34.9257 124.333 34.1878 125.251 33.6758C126.185 33.1488 127.254 32.8853 128.459 32.8853C129.633 32.8853 130.672 33.1413 131.576 33.6533C132.479 34.1652 133.172 34.873 133.654 35.7765C134.151 36.665 134.399 37.6739 134.399 38.8033ZM132.276 38.3741C132.276 37.5911 132.103 36.921 131.756 36.3638C131.41 35.7916 130.936 35.3624 130.333 35.0763C129.746 34.7751 129.091 34.6245 128.368 34.6245C127.329 34.6245 126.441 34.9558 125.703 35.6184C124.98 36.281 124.566 37.1995 124.461 38.3741H132.276ZM153.66 34.3309C153.66 35.641 153.208 36.7327 152.305 37.6061C151.417 38.4644 150.054 38.8936 148.217 38.8936H145.19V45.4666H143.134V29.723H148.217C149.993 29.723 151.341 30.1522 152.26 31.0105C153.193 31.8688 153.66 32.9756 153.66 34.3309ZM148.217 37.1995C149.361 37.1995 150.204 36.9511 150.746 36.4541C151.289 35.9572 151.56 35.2495 151.56 34.3309C151.56 32.3883 150.445 31.4171 148.217 31.4171H145.19V37.1995H148.217ZM158.27 28.7517V45.4666H156.215V28.7517H158.27ZM161.006 39.2324C161.006 37.9675 161.262 36.8607 161.774 35.912C162.286 34.9483 162.986 34.2029 163.874 33.6758C164.778 33.1488 165.779 32.8853 166.878 32.8853C167.963 32.8853 168.904 33.1187 169.702 33.5855C170.5 34.0523 171.095 34.6396 171.486 35.3473V33.0886H173.564V45.4666H171.486V43.1627C171.08 43.8855 170.47 44.4878 169.657 44.9697C168.859 45.4365 167.925 45.6699 166.856 45.6699C165.757 45.6699 164.763 45.3989 163.874 44.8568C162.986 44.3147 162.286 43.5542 161.774 42.5754C161.262 41.5966 161.006 40.4823 161.006 39.2324ZM171.486 39.255C171.486 38.3214 171.298 37.5082 170.922 36.8155C170.545 36.1229 170.033 35.5958 169.386 35.2344C168.753 34.8579 168.053 34.6697 167.285 34.6697C166.517 34.6697 165.817 34.8504 165.184 35.2118C164.552 35.5732 164.047 36.1003 163.671 36.793C163.295 37.4856 163.106 38.2988 163.106 39.2324C163.106 40.1811 163.295 41.0093 163.671 41.7171C164.047 42.4098 164.552 42.9443 165.184 43.3208C165.817 43.6822 166.517 43.8629 167.285 43.8629C168.053 43.8629 168.753 43.6822 169.386 43.3208C170.033 42.9443 170.545 42.4098 170.922 41.7171C171.298 41.0093 171.486 40.1886 171.486 39.255ZM187.699 33.0886L180.245 51.2943H178.122L180.562 45.3311L175.57 33.0886H177.851L181.736 43.1175L185.576 33.0886H187.699Z" fill="white"/>
<path d="M11.188 54.3773V11.796L49.464 32.492L11.188 54.3773Z" fill="#33A9AC"/>
<path d="M11.188 11.796L38.272 38.8907L49.464 32.492L11.188 11.796Z" fill="#ABD984"/>
<path d="M38.0493 26.316L11.188 54.3773L49.464 32.492L38.0493 26.316Z" fill="#BA3564"/>
<path d="M38.272 38.8907L49.464 32.492L38.0493 26.316L32.016 32.6267L38.272 38.8907Z" fill="#F68765"/>
</svg>
